<svg id="svg" xmlns="http://www.w3.org/2000/svg" xmlns:xlink="http://www.w3.org/1999/xlink" width="400" height="400" viewBox="0, 0, 400,400" version="1.1"><g id="svgg"><path id="path0" d="M12.500 200.000 L 12.500 362.500 175.000 362.500 L 337.500 362.500 337.500 302.655 C 337.500 244.016,338.004 241.962,362.500 200.729 C 396.453 143.578,392.994 112.500,352.679 112.500 C 338.294 112.500,337.500 110.539,337.500 75.000 L 337.500 37.500 175.000 37.500 L 12.500 37.500 12.500 200.000 M323.853 70.313 L 325.830 87.500 175.415 87.500 L 25.000 87.500 25.000 72.917 C 25.000 49.837,26.061 49.688,177.717 51.450 L 321.875 53.125 323.853 70.313 M325.000 112.644 C 325.000 119.598,311.964 147.723,296.031 175.144 L 267.063 225.000 214.781 225.000 L 162.500 225.000 162.500 268.750 L 162.500 312.500 199.271 312.500 C 230.786 312.500,236.509 314.287,239.311 325.000 C 245.621 349.131,292.604 321.034,317.695 278.125 C 323.722 267.818,324.730 272.752,323.440 306.250 L 321.875 346.875 175.000 346.875 L 28.125 346.875 26.430 223.438 L 24.736 100.000 174.868 100.000 C 321.402 100.000,325.000 100.303,325.000 112.644 M50.000 162.500 L 50.000 200.000 93.750 200.000 L 137.500 200.000 137.500 162.500 L 137.500 125.000 93.750 125.000 L 50.000 125.000 50.000 162.500 M162.500 131.250 C 162.500 134.688,168.125 137.500,175.000 137.500 C 181.875 137.500,187.500 134.688,187.500 131.250 C 187.500 127.813,181.875 125.000,175.000 125.000 C 168.125 125.000,162.500 127.813,162.500 131.250 M200.000 131.250 C 200.000 134.896,220.833 137.500,250.000 137.500 C 279.167 137.500,300.000 134.896,300.000 131.250 C 300.000 127.604,279.167 125.000,250.000 125.000 C 220.833 125.000,200.000 127.604,200.000 131.250 M367.590 145.466 C 369.433 155.038,367.700 155.503,353.795 149.168 C 345.048 145.183,339.472 139.365,341.404 136.240 C 347.051 127.102,365.291 133.529,367.590 145.466 M125.000 162.500 L 125.000 187.500 93.750 187.500 L 62.500 187.500 62.500 162.500 L 62.500 137.500 93.750 137.500 L 125.000 137.500 125.000 162.500 M162.500 156.250 C 162.500 160.038,189.583 162.500,231.250 162.500 C 272.917 162.500,300.000 160.038,300.000 156.250 C 300.000 152.462,272.917 150.000,231.250 150.000 C 189.583 150.000,162.500 152.462,162.500 156.250 M162.500 181.250 C 162.500 184.688,176.563 187.500,193.750 187.500 C 210.938 187.500,225.000 184.688,225.000 181.250 C 225.000 177.813,210.938 175.000,193.750 175.000 C 176.563 175.000,162.500 177.813,162.500 181.250 M237.500 181.250 C 237.500 184.688,245.938 187.500,256.250 187.500 C 266.563 187.500,275.000 184.688,275.000 181.250 C 275.000 177.813,266.563 175.000,256.250 175.000 C 245.938 175.000,237.500 177.813,237.500 181.250 M343.750 193.601 C 343.750 196.715,340.503 201.269,336.534 203.722 C 331.836 206.625,331.025 205.420,334.210 200.267 C 342.106 187.491,323.870 180.580,314.077 192.638 C 306.607 201.836,306.403 201.387,312.418 188.983 C 319.247 174.898,343.750 178.509,343.750 193.601 M321.875 231.250 C 316.542 241.563,310.773 250.000,309.054 250.000 C 307.335 250.000,310.292 241.563,315.625 231.250 C 320.958 220.938,326.727 212.500,328.446 212.500 C 330.165 212.500,327.208 220.938,321.875 231.250 M50.000 231.250 C 50.000 234.821,68.750 237.500,93.750 237.500 C 118.750 237.500,137.500 234.821,137.500 231.250 C 137.500 227.679,118.750 225.000,93.750 225.000 C 68.750 225.000,50.000 227.679,50.000 231.250 M253.021 248.438 C 250.509 254.453,246.589 267.813,244.311 278.125 C 240.428 295.694,238.115 296.994,207.584 298.764 L 175.000 300.653 175.000 269.077 L 175.000 237.500 216.294 237.500 C 253.194 237.500,257.101 238.664,253.021 248.438 M50.000 256.250 C 50.000 259.821,68.750 262.500,93.750 262.500 C 118.750 262.500,137.500 259.821,137.500 256.250 C 137.500 252.679,118.750 250.000,93.750 250.000 C 68.750 250.000,50.000 252.679,50.000 256.250 M50.000 281.250 C 50.000 284.821,68.750 287.500,93.750 287.500 C 118.750 287.500,137.500 284.821,137.500 281.250 C 137.500 277.679,118.750 275.000,93.750 275.000 C 68.750 275.000,50.000 277.679,50.000 281.250 M50.000 306.250 C 50.000 309.821,68.750 312.500,93.750 312.500 C 118.750 312.500,137.500 309.821,137.500 306.250 C 137.500 302.679,118.750 300.000,93.750 300.000 C 68.750 300.000,50.000 302.679,50.000 306.250 " stroke="none" fill="#000000" fill-rule="evenodd"></path></g></svg>