<svg id="svg" xmlns="http://www.w3.org/2000/svg" xmlns:xlink="http://www.w3.org/1999/xlink" width="400" height="400" viewBox="0, 0, 400,400" version="1.1"><g id="svgg"><path id="path0" d="M84.729 63.891 C 79.378 71.531,75.000 85.593,75.000 95.141 C 75.000 109.088,72.175 112.500,60.625 112.500 C 33.423 112.500,31.250 121.359,31.250 232.280 C 31.250 361.013,17.347 350.000,179.870 350.000 C 308.777 350.000,325.000 346.712,325.000 320.583 C 325.000 316.976,330.875 310.124,338.055 305.356 C 351.711 296.289,367.834 198.345,368.479 120.532 C 368.831 78.168,369.885 78.628,236.419 62.915 C 99.389 46.783,96.700 46.800,84.729 63.891 M245.445 86.650 C 359.304 100.359,351.635 91.299,338.776 196.901 L 328.125 284.375 326.353 209.636 C 323.929 107.425,330.419 112.500,202.156 112.500 L 100.000 112.500 100.000 93.750 C 100.000 70.619,108.748 70.192,245.445 86.650 M290.114 135.044 C 297.656 137.938,300.000 148.015,300.000 177.550 L 300.000 216.263 252.883 243.071 C 201.134 272.514,205.072 272.863,164.253 235.222 C 137.740 210.774,115.064 211.181,80.369 236.725 L 53.125 256.783 51.310 202.774 C 50.153 168.350,52.131 145.588,56.763 140.007 C 64.311 130.912,268.055 126.579,290.114 135.044 M174.984 165.644 C 154.789 189.978,171.107 225.000,202.640 225.000 C 227.648 225.000,237.500 215.285,237.500 190.625 C 237.500 158.279,195.143 141.354,174.984 165.644 M211.748 197.781 C 206.301 204.344,202.531 204.694,195.969 199.248 C 189.406 193.801,189.056 190.031,194.502 183.469 C 199.949 176.906,203.719 176.556,210.281 182.002 C 216.844 187.449,217.194 191.219,211.748 197.781 M158.075 263.432 C 196.080 295.478,211.690 295.900,262.287 266.245 L 300.000 244.143 300.000 284.703 L 300.000 325.264 176.563 323.570 L 53.125 321.875 51.219 305.426 C 49.618 291.618,55.139 284.843,85.593 263.238 C 129.300 232.232,121.047 232.210,158.075 263.432 " stroke="none" fill="#000000" fill-rule="evenodd"></path></g></svg>