<svg id="svg" xmlns="http://www.w3.org/2000/svg" xmlns:xlink="http://www.w3.org/1999/xlink" width="400" height="400" viewBox="0, 0, 400,400" version="1.1"><g id="svgg"><path id="path0" d="M100.000 78.412 C 10.259 149.247,-7.381 168.750,18.292 168.750 C 30.895 168.750,31.250 171.664,31.250 275.000 L 31.250 381.250 200.000 381.250 L 368.750 381.250 368.750 275.000 C 368.750 172.917,369.240 168.750,381.250 168.750 C 402.740 168.750,395.002 151.984,362.500 128.125 C 331.672 105.495,331.250 104.729,331.250 71.343 L 331.250 37.500 306.561 37.500 C 290.801 37.500,279.918 40.990,276.471 47.149 C 271.953 55.223,265.890 52.672,239.328 31.524 C 197.716 -1.608,204.097 -3.755,100.000 78.412 M240.033 62.500 C 287.149 99.527,298.247 101.494,301.729 73.438 C 303.685 57.676,304.474 59.719,305.250 82.560 C 306.192 110.277,328.072 143.750,345.249 143.750 C 347.862 143.750,350.000 191.563,350.000 250.000 L 350.000 356.250 303.125 356.250 L 256.250 356.250 256.250 281.250 L 256.250 206.250 200.000 206.250 L 143.750 206.250 143.750 281.250 L 143.750 356.250 96.875 356.250 L 50.000 356.250 50.405 251.563 L 50.809 146.875 123.842 89.587 C 164.010 58.079,197.639 32.063,198.572 31.775 C 199.505 31.486,218.163 45.313,240.033 62.500 M237.500 290.625 L 237.500 356.250 200.000 356.250 L 162.500 356.250 162.500 290.625 L 162.500 225.000 200.000 225.000 L 237.500 225.000 237.500 290.625 M206.250 287.500 C 206.250 294.444,210.417 300.000,215.625 300.000 C 220.833 300.000,225.000 294.444,225.000 287.500 C 225.000 280.556,220.833 275.000,215.625 275.000 C 210.417 275.000,206.250 280.556,206.250 287.500 " stroke="none" fill="#000000" fill-rule="evenodd"></path></g></svg>