<svg id="svg" xmlns="http://www.w3.org/2000/svg" xmlns:xlink="http://www.w3.org/1999/xlink" width="400" height="400" viewBox="0, 0, 400,400" version="1.1"><g id="svgg"><path id="path0" d="M310.417 4.167 C 308.125 6.458,306.250 13.353,306.250 19.487 C 306.250 29.621,301.340 30.295,252.605 26.856 L 198.960 23.070 105.730 116.144 C 33.999 187.756,12.500 212.917,12.500 225.254 C 12.500 244.618,153.168 387.500,172.231 387.500 C 178.987 387.500,224.500 346.929,279.967 291.462 L 376.005 195.424 371.617 145.121 C 367.328 95.946,367.550 94.772,381.563 92.722 C 403.874 89.458,404.399 75.000,382.206 75.000 C 367.456 75.000,362.936 71.962,361.372 60.996 C 360.245 53.095,351.885 43.414,342.188 38.780 C 330.362 33.130,325.000 25.800,325.000 15.284 C 325.000 0.408,318.858 -4.274,310.417 4.167 M342.188 55.710 C 345.444 56.835,343.586 75.000,340.214 75.000 C 338.269 75.000,330.976 71.948,324.007 68.219 C 292.240 51.218,263.130 89.681,290.544 112.433 C 302.529 122.379,331.250 115.360,331.250 102.485 C 331.250 73.084,347.524 103.702,351.683 140.928 L 356.491 183.960 277.877 262.749 C 223.196 317.551,195.093 341.399,185.569 341.082 C 175.132 340.734,172.004 344.076,172.419 355.133 C 172.855 366.751,158.851 355.567,102.107 298.984 C 63.135 260.124,31.293 225.471,31.346 221.977 C 31.398 218.483,33.996 219.663,37.119 224.598 C 44.787 236.716,64.739 221.100,59.392 207.166 C 56.889 200.642,80.795 172.449,134.304 118.821 L 212.893 40.057 276.759 47.614 C 311.885 51.770,341.328 55.414,342.188 55.710 M312.500 90.625 C 312.500 95.781,309.688 100.000,306.250 100.000 C 302.813 100.000,300.000 95.781,300.000 90.625 C 300.000 85.469,302.813 81.250,306.250 81.250 C 309.688 81.250,312.500 85.469,312.500 90.625 M200.871 136.830 C 196.193 139.793,186.608 140.712,179.571 138.872 C 168.819 136.060,167.363 137.771,170.453 149.588 C 173.951 162.963,173.560 163.134,162.459 153.088 C 146.039 138.228,134.086 146.984,145.991 165.153 C 151.901 174.173,153.167 182.300,149.551 188.012 C 134.695 211.484,159.789 268.750,184.931 268.750 C 198.632 268.750,195.351 253.683,178.125 237.500 C 162.946 223.240,158.121 206.463,166.724 197.860 C 169.047 195.536,177.522 199.812,185.557 207.360 C 208.043 228.485,220.298 212.620,199.627 189.145 L 184.420 171.875 203.490 189.063 C 235.554 217.962,253.407 204.623,222.068 175.181 C 213.580 167.207,208.121 158.279,209.936 155.342 C 216.230 145.158,235.393 150.076,250.000 165.625 C 266.183 182.851,281.250 186.132,281.250 172.431 C 281.250 147.521,224.011 122.169,200.871 136.830 M62.375 234.526 C 58.026 239.765,56.154 245.738,58.215 247.798 C 64.615 254.199,81.250 244.647,81.250 234.571 C 81.250 222.330,72.514 222.309,62.375 234.526 M88.750 251.250 C 80.024 259.976,78.749 275.000,86.735 275.000 C 89.751 275.000,95.820 270.662,100.220 265.360 C 110.368 253.132,99.831 240.169,88.750 251.250 M106.297 278.068 C 101.854 283.422,100.161 289.744,102.534 292.117 C 107.828 297.411,125.971 286.691,125.951 278.281 C 125.928 267.945,114.799 267.824,106.297 278.068 M127.157 303.395 C 125.121 308.699,125.142 314.725,127.202 316.785 C 131.653 321.237,150.000 307.113,150.000 299.235 C 150.000 289.803,131.048 293.254,127.157 303.395 M151.250 320.000 C 140.387 330.863,142.030 337.500,155.581 337.500 C 167.453 337.500,177.398 323.232,170.403 316.236 C 164.811 310.644,159.577 311.673,151.250 320.000 " stroke="none" fill="#000000" fill-rule="evenodd"></path></g></svg>